<svg width="200" height="63" viewBox="0 0 200 63" fill="none" xmlns="http://www.w3.org/2000/svg">
<path fill-rule="evenodd" clip-rule="evenodd" d="M70.1721 31.0774C70.9101 30.7923 71.5434 30.2887 71.9869 29.634C72.4305 28.9794 72.6633 28.205 72.6541 27.4146C72.6541 24.1181 70.3131 22.4839 67.0978 22.4839H58.6648V40.4034H67.8311C70.6516 40.4034 73.4156 38.4311 73.4156 35.4164C73.4156 31.8381 70.1721 31.1055 70.1721 31.0774ZM63.0646 26.203H66.3363C66.5621 26.1894 66.7882 26.2238 66.9997 26.304C67.2112 26.3841 67.4032 26.5082 67.5631 26.668C67.7231 26.8277 67.8473 27.0196 67.9275 27.2309C68.0077 27.4421 68.0422 27.668 68.0286 27.8936C68.0242 28.119 67.9741 28.3411 67.8815 28.5467C67.7888 28.7523 67.6555 28.937 67.4894 29.0897C67.3234 29.2424 67.1282 29.3599 66.9154 29.4352C66.7027 29.5105 66.4769 29.542 66.2517 29.5277H63.0646V26.203ZM66.3645 36.6561H63.0646V33.1342H66.2799C67.8875 33.1342 68.649 33.8386 68.649 34.881C68.649 36.1771 67.6901 36.6561 66.3645 36.6561Z" fill="black"/>
<path fill-rule="evenodd" clip-rule="evenodd" d="M83.1178 22.0331C77.9282 22.0331 74.8822 26.1749 74.8822 31.4155C74.8822 36.6843 77.9282 40.7979 83.1178 40.7979C88.3356 40.7979 91.3534 36.6843 91.3534 31.4155C91.3534 26.1749 88.3356 22.0331 83.1178 22.0331ZM83.1178 36.5152C80.5794 36.5152 79.3102 34.233 79.3102 31.4155C79.3102 28.5979 80.5794 26.3439 83.1178 26.3439C85.6562 26.3439 86.9536 28.6261 86.9536 31.4155C86.9536 34.2612 85.6562 36.5152 83.1178 36.5152Z" fill="black"/>
<path fill-rule="evenodd" clip-rule="evenodd" d="M100.915 29.5277L100.294 29.3869C98.7712 29.0769 97.5584 28.6825 97.5584 27.5836C97.5584 26.4003 98.7147 25.9213 99.7301 25.9213C100.423 25.9322 101.106 26.0854 101.737 26.3714C102.367 26.6574 102.932 27.07 103.397 27.5836L106.189 24.8225C104.92 23.3855 102.861 22.0049 99.6455 22.0049C95.8661 22.0049 92.9893 24.1181 92.9893 27.64C92.9893 30.852 95.302 32.4298 98.1225 33.0215L98.7429 33.1623C101.084 33.6413 101.958 34.0076 101.958 35.1346C101.958 36.2053 100.999 36.9097 99.5327 36.9097C97.784 36.9097 96.2046 36.1489 94.9918 34.5993L92.1432 37.4168C93.7226 39.3046 95.7251 40.7697 99.5891 40.7697C102.945 40.7697 106.527 38.8538 106.527 34.9374C106.584 30.852 103.481 30.0631 100.915 29.5277Z" fill="black"/>
<path fill-rule="evenodd" clip-rule="evenodd" d="M116.568 36.5152C114.594 36.5152 112.535 34.881 112.535 31.3028C112.535 28.119 114.453 26.3439 116.455 26.3439C118.035 26.3439 118.965 27.0765 119.699 28.3444L123.309 25.9495C121.504 23.2165 119.36 22.0613 116.399 22.0613C110.984 22.0613 108.05 26.2594 108.05 31.3309C108.05 36.6561 111.294 40.826 116.342 40.826C119.896 40.826 121.588 39.5863 123.422 36.9378L119.783 34.4866C119.05 35.6699 118.26 36.5152 116.568 36.5152Z" fill="black"/>
<path fill-rule="evenodd" clip-rule="evenodd" d="M135.352 22.4839V29.0769H129.909V22.4839H125.198V40.4034H129.909V33.3314H135.352V40.4034H140.062V22.4839H135.352Z" fill="black"/>
<path d="M31.5323 17.9195C28.8436 17.9195 26.2152 18.716 23.9796 20.2082C21.7441 21.7005 20.0016 23.8215 18.9727 26.303C17.9438 28.7845 17.6745 31.5151 18.1991 34.1494C18.7236 36.7838 20.0184 39.2036 21.9196 41.1029C23.8208 43.0021 26.2431 44.2955 28.8802 44.8196C31.5172 45.3436 34.2506 45.0746 36.7347 44.0467C39.2187 43.0189 41.3419 41.2782 42.8357 39.0449C44.3294 36.8116 45.1267 34.186 45.1267 31.5C45.1248 27.8988 43.6919 24.4457 41.1429 21.8993C38.5938 19.3529 35.1372 17.9214 31.5323 17.9195ZM31.5323 43.8126C29.0946 43.8126 26.7116 43.0905 24.6848 41.7376C22.6579 40.3846 21.0781 38.4617 20.1453 36.2118C19.2124 33.962 18.9683 31.4863 19.4439 29.0979C19.9195 26.7095 21.0933 24.5156 22.817 22.7937C24.5408 21.0717 26.7369 19.8991 29.1278 19.424C31.5186 18.9489 33.9968 19.1927 36.249 20.1246C38.5011 21.0565 40.4261 22.6347 41.7804 24.6595C43.1347 26.6843 43.8575 29.0648 43.8575 31.5C43.8542 34.7645 42.5546 37.8943 40.2439 40.2026C37.9332 42.511 34.8001 43.8093 31.5323 43.8126Z" fill="black"/>
<path d="M37.1449 23.0192H36.2142V27.6682H26.8786V23.0192H25.9197C24.5153 23.945 23.3628 25.2044 22.5654 26.6845C21.7679 28.1646 21.3505 29.8191 21.3505 31.5C21.3505 33.1809 21.7679 34.8354 22.5654 36.3155C23.3628 37.7956 24.5153 39.055 25.9197 39.9808H26.8786V35.3318H36.2142V39.9808H37.1449C38.5493 39.055 39.7018 37.7956 40.4993 36.3155C41.2967 34.8354 41.7141 33.1809 41.7141 31.5C41.7141 29.8191 41.2967 28.1646 40.4993 26.6845C39.7018 25.2044 38.5493 23.945 37.1449 23.0192ZM25.5812 38.1494C24.6411 37.3148 23.8886 36.2907 23.3733 35.1446C22.858 33.9985 22.5916 32.7564 22.5916 31.5C22.5916 30.2436 22.858 29.0015 23.3733 27.8554C23.8886 26.7093 24.6411 25.6852 25.5812 24.8506V38.1494ZM36.2142 34.0358H26.8786V28.936H36.2142V34.0358ZM37.4834 38.1212V24.8506C38.4154 25.6872 39.1607 26.7103 39.6709 27.8535C40.1811 28.9966 40.4448 30.2343 40.4448 31.4859C40.4448 32.7376 40.1811 33.9752 39.6709 35.1184C39.1607 36.2615 38.4154 37.2846 37.4834 38.1212Z" fill="black"/>
<line x1="150.5" y1="11" x2="150.5" y2="51" stroke="black"/>
<path d="M160.358 38H158.511L163.852 23.4545H165.67L171.011 38H169.165L164.818 25.7557H164.705L160.358 38ZM161.04 32.3182H168.483V33.8807H161.04V32.3182ZM173.277 38V23.4545H178.362C179.375 23.4545 180.211 23.6297 180.869 23.9801C181.527 24.3258 182.018 24.7921 182.339 25.3793C182.661 25.9616 182.822 26.608 182.822 27.3182C182.822 27.9432 182.711 28.4593 182.489 28.8665C182.271 29.2737 181.982 29.5956 181.622 29.8324C181.267 30.0691 180.881 30.2443 180.464 30.358V30.5C180.91 30.5284 181.357 30.6847 181.807 30.9688C182.257 31.2528 182.633 31.66 182.936 32.1903C183.239 32.7206 183.391 33.3693 183.391 34.1364C183.391 34.8655 183.225 35.5213 182.893 36.1037C182.562 36.6861 182.039 37.1477 181.324 37.4886C180.609 37.8295 179.679 38 178.533 38H173.277ZM175.038 36.4375H178.533C179.683 36.4375 180.5 36.215 180.983 35.7699C181.471 35.3201 181.714 34.7756 181.714 34.1364C181.714 33.6439 181.589 33.1894 181.338 32.7727C181.087 32.3513 180.73 32.0152 180.266 31.7642C179.802 31.5085 179.252 31.3807 178.618 31.3807H175.038V36.4375ZM175.038 29.8466H178.305C178.836 29.8466 179.314 29.7424 179.74 29.5341C180.171 29.3258 180.512 29.0322 180.763 28.6534C181.018 28.2746 181.146 27.8295 181.146 27.3182C181.146 26.679 180.924 26.1368 180.479 25.6918C180.034 25.242 179.328 25.017 178.362 25.017H175.038V29.8466ZM197.989 28H196.228C196.124 27.4934 195.942 27.0483 195.681 26.6648C195.425 26.2812 195.113 25.9593 194.744 25.6989C194.379 25.4337 193.974 25.2348 193.529 25.1023C193.084 24.9697 192.62 24.9034 192.137 24.9034C191.256 24.9034 190.459 25.1259 189.744 25.571C189.033 26.0161 188.468 26.6719 188.046 27.5384C187.629 28.4048 187.421 29.4678 187.421 30.7273C187.421 31.9867 187.629 33.0497 188.046 33.9162C188.468 34.7827 189.033 35.4384 189.744 35.8835C190.459 36.3286 191.256 36.5511 192.137 36.5511C192.62 36.5511 193.084 36.4848 193.529 36.3523C193.974 36.2197 194.379 36.0232 194.744 35.7628C195.113 35.4976 195.425 35.1733 195.681 34.7898C195.942 34.4015 196.124 33.9564 196.228 33.4545H197.989C197.857 34.1979 197.615 34.8632 197.265 35.4503C196.915 36.0374 196.479 36.5369 195.958 36.9489C195.437 37.3561 194.853 37.6662 194.204 37.8793C193.56 38.0923 192.871 38.1989 192.137 38.1989C190.897 38.1989 189.793 37.8958 188.827 37.2898C187.862 36.6837 187.102 35.822 186.548 34.7045C185.994 33.5871 185.717 32.2614 185.717 30.7273C185.717 29.1932 185.994 27.8674 186.548 26.75C187.102 25.6326 187.862 24.7708 188.827 24.1648C189.793 23.5587 190.897 23.2557 192.137 23.2557C192.871 23.2557 193.56 23.3622 194.204 23.5753C194.853 23.7884 195.437 24.1009 195.958 24.5128C196.479 24.92 196.915 25.4171 197.265 26.0043C197.615 26.5866 197.857 27.2519 197.989 28Z" fill="black"/>
</svg>
